<svg width="118" height="32" viewBox="0 0 118 32" fill="none" xmlns="http://www.w3.org/2000/svg">
<path d="M26.0972 5H6.09717C5.54488 5 5.09717 5.44772 5.09717 6V26C5.09717 26.5523 5.54488 27 6.09717 27H26.0972C26.6495 27 27.0972 26.5523 27.0972 26V6C27.0972 5.44772 26.6495 5 26.0972 5Z" stroke="#00B37E" stroke-width="2" stroke-linecap="round" stroke-linejoin="round"/>
<path d="M22.0972 3V7" stroke="#00B37E" stroke-width="2" stroke-linecap="round" stroke-linejoin="round"/>
<path d="M10.0972 3V7" stroke="#00B37E" stroke-width="2" stroke-linecap="round" stroke-linejoin="round"/>
<path d="M5.09717 11H27.0972" stroke="#00B37E" stroke-width="2" stroke-linecap="round" stroke-linejoin="round"/>
<path d="M20.5972 16L14.7597 21.5L11.5972 18.5" stroke="#00B37E" stroke-width="2" stroke-linecap="round" stroke-linejoin="round"/>
<path d="M46.9062 14.6211V23H44.084V12.4336H46.7305L46.9062 14.6211ZM46.5156 17.3457H45.7344C45.7344 16.61 45.8223 15.9329 45.998 15.3145C46.1803 14.6895 46.444 14.1491 46.7891 13.6934C47.1406 13.2311 47.5736 12.873 48.0879 12.6191C48.6022 12.3652 49.1979 12.2383 49.875 12.2383C50.3438 12.2383 50.7734 12.3099 51.1641 12.4531C51.5547 12.5898 51.89 12.8079 52.1699 13.1074C52.4564 13.4004 52.6777 13.7845 52.834 14.2598C52.9902 14.7285 53.0684 15.2917 53.0684 15.9492V23H50.2559V16.2617C50.2559 15.7799 50.1908 15.4089 50.0605 15.1484C49.9303 14.888 49.7448 14.7057 49.5039 14.6016C49.2695 14.4974 48.9863 14.4453 48.6543 14.4453C48.2897 14.4453 47.9707 14.5202 47.6973 14.6699C47.4303 14.8197 47.209 15.028 47.0332 15.2949C46.8574 15.5553 46.7272 15.8613 46.6426 16.2129C46.5579 16.5645 46.5156 16.9421 46.5156 17.3457ZM52.8047 17.0234L51.7988 17.1504C51.7988 16.4603 51.8835 15.819 52.0527 15.2266C52.2285 14.6341 52.4857 14.1133 52.8242 13.6641C53.1693 13.2148 53.5957 12.8665 54.1035 12.6191C54.6113 12.3652 55.1973 12.2383 55.8613 12.2383C56.3691 12.2383 56.8314 12.3132 57.248 12.4629C57.6647 12.6061 58.0195 12.8372 58.3125 13.1562C58.612 13.4688 58.8398 13.8789 58.9961 14.3867C59.1589 14.8945 59.2402 15.5163 59.2402 16.252V23H56.418V16.252C56.418 15.7637 56.3529 15.3926 56.2227 15.1387C56.099 14.8783 55.9167 14.6992 55.6758 14.6016C55.4414 14.4974 55.1615 14.4453 54.8359 14.4453C54.4974 14.4453 54.2012 14.5137 53.9473 14.6504C53.6934 14.7806 53.4818 14.9629 53.3125 15.1973C53.1432 15.4316 53.0163 15.7051 52.9316 16.0176C52.847 16.3236 52.8047 16.6589 52.8047 17.0234ZM66.2812 23.1953C65.4609 23.1953 64.7253 23.0651 64.0742 22.8047C63.4232 22.5378 62.8698 22.1699 62.4141 21.7012C61.9648 21.2324 61.6198 20.6888 61.3789 20.0703C61.138 19.4453 61.0176 18.7812 61.0176 18.0781V17.6875C61.0176 16.8867 61.1315 16.1543 61.3594 15.4902C61.5872 14.8262 61.9128 14.25 62.3359 13.7617C62.7656 13.2734 63.2865 12.8991 63.8984 12.6387C64.5104 12.3717 65.2005 12.2383 65.9688 12.2383C66.7174 12.2383 67.3815 12.362 67.9609 12.6094C68.5404 12.8568 69.0254 13.2083 69.416 13.6641C69.8132 14.1198 70.1126 14.6667 70.3145 15.3047C70.5163 15.9362 70.6172 16.6393 70.6172 17.4141V18.5859H62.2188V16.7109H67.8535V16.4961C67.8535 16.1055 67.7819 15.7572 67.6387 15.4512C67.502 15.1387 67.2936 14.8913 67.0137 14.709C66.7337 14.5267 66.3757 14.4355 65.9395 14.4355C65.5684 14.4355 65.2493 14.5169 64.9824 14.6797C64.7155 14.8424 64.4974 15.0703 64.3281 15.3633C64.1654 15.6562 64.0417 16.0013 63.957 16.3984C63.8789 16.7891 63.8398 17.2188 63.8398 17.6875V18.0781C63.8398 18.5013 63.8984 18.8919 64.0156 19.25C64.1393 19.6081 64.3118 19.9173 64.5332 20.1777C64.7611 20.4382 65.0345 20.64 65.3535 20.7832C65.679 20.9264 66.0469 20.998 66.457 20.998C66.9648 20.998 67.4368 20.9004 67.873 20.7051C68.3158 20.5033 68.6966 20.2005 69.0156 19.7969L70.3828 21.2812C70.1615 21.6003 69.8587 21.9062 69.4746 22.1992C69.097 22.4922 68.6413 22.7331 68.1074 22.9219C67.5736 23.1042 66.9648 23.1953 66.2812 23.1953ZM72.3555 21.6426C72.3555 21.2259 72.4987 20.8776 72.7852 20.5977C73.0781 20.3177 73.4655 20.1777 73.9473 20.1777C74.429 20.1777 74.8132 20.3177 75.0996 20.5977C75.3926 20.8776 75.5391 21.2259 75.5391 21.6426C75.5391 22.0592 75.3926 22.4076 75.0996 22.6875C74.8132 22.9674 74.429 23.1074 73.9473 23.1074C73.4655 23.1074 73.0781 22.9674 72.7852 22.6875C72.4987 22.4076 72.3555 22.0592 72.3555 21.6426ZM83.1953 12.4336V14.4258H77.043V12.4336H83.1953ZM78.5664 9.82617H81.3789V19.8164C81.3789 20.1224 81.418 20.3568 81.4961 20.5195C81.5807 20.6823 81.7044 20.7962 81.8672 20.8613C82.0299 20.9199 82.235 20.9492 82.4824 20.9492C82.6582 20.9492 82.8145 20.9427 82.9512 20.9297C83.0944 20.9102 83.2148 20.8906 83.3125 20.8711L83.3223 22.9414C83.0814 23.0195 82.821 23.0814 82.541 23.127C82.2611 23.1725 81.9518 23.1953 81.6133 23.1953C80.9948 23.1953 80.4544 23.0944 79.9922 22.8926C79.5365 22.6842 79.1849 22.3522 78.9375 21.8965C78.6901 21.4408 78.5664 20.8418 78.5664 20.0996V9.82617ZM84.0938 17.8242V17.6191C84.0938 16.8444 84.2044 16.1315 84.4258 15.4805C84.6471 14.8229 84.9694 14.2533 85.3926 13.7715C85.8158 13.2897 86.3366 12.9154 86.9551 12.6484C87.5736 12.375 88.2832 12.2383 89.084 12.2383C89.8848 12.2383 90.5977 12.375 91.2227 12.6484C91.8477 12.9154 92.3717 13.2897 92.7949 13.7715C93.2246 14.2533 93.5501 14.8229 93.7715 15.4805C93.9928 16.1315 94.1035 16.8444 94.1035 17.6191V17.8242C94.1035 18.5924 93.9928 19.3053 93.7715 19.9629C93.5501 20.6139 93.2246 21.1836 92.7949 21.6719C92.3717 22.1536 91.8509 22.528 91.2324 22.7949C90.6139 23.0618 89.9043 23.1953 89.1035 23.1953C88.3027 23.1953 87.5898 23.0618 86.9648 22.7949C86.3464 22.528 85.8223 22.1536 85.3926 21.6719C84.9694 21.1836 84.6471 20.6139 84.4258 19.9629C84.2044 19.3053 84.0938 18.5924 84.0938 17.8242ZM86.9062 17.6191V17.8242C86.9062 18.2669 86.9453 18.6803 87.0234 19.0645C87.1016 19.4486 87.2253 19.7871 87.3945 20.0801C87.5703 20.3665 87.7982 20.5911 88.0781 20.7539C88.3581 20.9167 88.6999 20.998 89.1035 20.998C89.4941 20.998 89.8294 20.9167 90.1094 20.7539C90.3893 20.5911 90.6139 20.3665 90.7832 20.0801C90.9525 19.7871 91.0762 19.4486 91.1543 19.0645C91.2389 18.6803 91.2812 18.2669 91.2812 17.8242V17.6191C91.2812 17.1895 91.2389 16.7858 91.1543 16.4082C91.0762 16.0241 90.9492 15.6855 90.7734 15.3926C90.6042 15.0931 90.3796 14.8587 90.0996 14.6895C89.8197 14.5202 89.4811 14.4355 89.084 14.4355C88.6868 14.4355 88.3483 14.5202 88.0684 14.6895C87.7949 14.8587 87.5703 15.0931 87.3945 15.3926C87.2253 15.6855 87.1016 16.0241 87.0234 16.4082C86.9453 16.7858 86.9062 17.1895 86.9062 17.6191ZM102.072 20.6953V8H104.904V23H102.355L102.072 20.6953ZM95.3926 17.8438V17.6387C95.3926 16.8314 95.4837 16.099 95.666 15.4414C95.8483 14.7773 96.1152 14.2077 96.4668 13.7324C96.8184 13.2572 97.2513 12.8893 97.7656 12.6289C98.2799 12.3685 98.8659 12.2383 99.5234 12.2383C100.142 12.2383 100.682 12.3685 101.145 12.6289C101.613 12.8893 102.01 13.2604 102.336 13.7422C102.668 14.2174 102.935 14.7806 103.137 15.4316C103.339 16.0762 103.485 16.7826 103.576 17.5508V18C103.485 18.7357 103.339 19.4193 103.137 20.0508C102.935 20.6823 102.668 21.2357 102.336 21.7109C102.01 22.1797 101.613 22.5443 101.145 22.8047C100.676 23.0651 100.129 23.1953 99.5039 23.1953C98.8464 23.1953 98.2604 23.0618 97.7461 22.7949C97.2383 22.528 96.8086 22.1536 96.457 21.6719C96.112 21.1901 95.8483 20.6237 95.666 19.9727C95.4837 19.3216 95.3926 18.612 95.3926 17.8438ZM98.2051 17.6387V17.8438C98.2051 18.2799 98.2376 18.6868 98.3027 19.0645C98.3743 19.4421 98.4883 19.7773 98.6445 20.0703C98.8073 20.3568 99.0156 20.5814 99.2695 20.7441C99.5299 20.9004 99.8457 20.9785 100.217 20.9785C100.699 20.9785 101.096 20.8711 101.408 20.6562C101.721 20.4349 101.958 20.1322 102.121 19.748C102.29 19.3639 102.388 18.9212 102.414 18.4199V17.1406C102.395 16.7305 102.336 16.3626 102.238 16.0371C102.147 15.7051 102.01 15.4219 101.828 15.1875C101.652 14.9531 101.431 14.7708 101.164 14.6406C100.904 14.5104 100.594 14.4453 100.236 14.4453C99.8717 14.4453 99.5592 14.5299 99.2988 14.6992C99.0384 14.862 98.8268 15.0866 98.6641 15.373C98.5078 15.6595 98.3906 15.998 98.3125 16.3887C98.2409 16.7728 98.2051 17.1895 98.2051 17.6387ZM106.652 17.8242V17.6191C106.652 16.8444 106.763 16.1315 106.984 15.4805C107.206 14.8229 107.528 14.2533 107.951 13.7715C108.374 13.2897 108.895 12.9154 109.514 12.6484C110.132 12.375 110.842 12.2383 111.643 12.2383C112.443 12.2383 113.156 12.375 113.781 12.6484C114.406 12.9154 114.93 13.2897 115.354 13.7715C115.783 14.2533 116.109 14.8229 116.33 15.4805C116.551 16.1315 116.662 16.8444 116.662 17.6191V17.8242C116.662 18.5924 116.551 19.3053 116.33 19.9629C116.109 20.6139 115.783 21.1836 115.354 21.6719C114.93 22.1536 114.41 22.528 113.791 22.7949C113.173 23.0618 112.463 23.1953 111.662 23.1953C110.861 23.1953 110.148 23.0618 109.523 22.7949C108.905 22.528 108.381 22.1536 107.951 21.6719C107.528 21.1836 107.206 20.6139 106.984 19.9629C106.763 19.3053 106.652 18.5924 106.652 17.8242ZM109.465 17.6191V17.8242C109.465 18.2669 109.504 18.6803 109.582 19.0645C109.66 19.4486 109.784 19.7871 109.953 20.0801C110.129 20.3665 110.357 20.5911 110.637 20.7539C110.917 20.9167 111.258 20.998 111.662 20.998C112.053 20.998 112.388 20.9167 112.668 20.7539C112.948 20.5911 113.173 20.3665 113.342 20.0801C113.511 19.7871 113.635 19.4486 113.713 19.0645C113.798 18.6803 113.84 18.2669 113.84 17.8242V17.6191C113.84 17.1895 113.798 16.7858 113.713 16.4082C113.635 16.0241 113.508 15.6855 113.332 15.3926C113.163 15.0931 112.938 14.8587 112.658 14.6895C112.378 14.5202 112.04 14.4355 111.643 14.4355C111.245 14.4355 110.907 14.5202 110.627 14.6895C110.354 14.8587 110.129 15.0931 109.953 15.3926C109.784 15.6855 109.66 16.0241 109.582 16.4082C109.504 16.7858 109.465 17.1895 109.465 17.6191Z" fill="#996DFF"/>
</svg>
